<svg xmlns="http://www.w3.org/2000/svg" xmlns:xlink="http://www.w3.org/1999/xlink" width="59.473" height="59.472" viewBox="0 0 59.473 59.472">
  <defs>
    <linearGradient id="linear-gradient" x1="0.381" y1="0.971" x2="0.619" y2="0.029" gradientUnits="objectBoundingBox">
      <stop offset="0" stop-color="#f58529"/>
      <stop offset="0.129" stop-color="#feda77"/>
      <stop offset="0.431" stop-color="#dd2a7b"/>
      <stop offset="0.741" stop-color="#8134af"/>
      <stop offset="1" stop-color="#515bd4"/>
    </linearGradient>
  </defs>
  <path id="instagram-round-line-color" d="M23.161,14.318h13.15a8.946,8.946,0,0,1,8.977,8.861V36.294a8.945,8.945,0,0,1-8.977,8.861H23.161a8.945,8.945,0,0,1-8.977-8.861V23.179A8.946,8.946,0,0,1,23.161,14.318ZM29.736,0A29.737,29.737,0,1,1,8.71,8.71,29.643,29.643,0,0,1,29.736,0Zm18.72,11.016a26.475,26.475,0,1,0,7.754,18.72A26.392,26.392,0,0,0,48.457,11.016Zm-18.8,10.395A8.693,8.693,0,1,1,20.959,30.1,8.7,8.7,0,0,1,29.652,21.411Zm0,2.936A5.757,5.757,0,1,1,23.895,30.1,5.759,5.759,0,0,1,29.652,24.347Zm8.41-4.141a1.411,1.411,0,1,1-1.411,1.411A1.411,1.411,0,0,1,38.063,20.206ZM24.236,16.837h11a7.512,7.512,0,0,1,7.51,7.471V35.365a7.512,7.512,0,0,1-7.51,7.47h-11a7.512,7.512,0,0,1-7.51-7.47V24.307a7.512,7.512,0,0,1,7.51-7.47Z" fill-rule="evenodd" fill="url(#linear-gradient)"/>
</svg>
