<svg xmlns="http://www.w3.org/2000/svg" width="59.473" height="59.477" viewBox="0 0 59.473 59.477">
  <path id="twitter-color" d="M60.472,31287.029a20.515,20.515,0,0,1-7,2.359,14.958,14.958,0,0,0,5.367-8.3,21.985,21.985,0,0,1-7.746,3.645,11.268,11.268,0,0,0-8.906-4.734c-6.737,0-12.192,6.727-12.192,15.016a18.657,18.657,0,0,0,.312,3.418c-10.138-.637-19.125-6.609-25.142-15.7a17.8,17.8,0,0,0-1.65,7.547h0a16.141,16.141,0,0,0,5.422,12.5A10.576,10.576,0,0,1,3.4,31300.9v.188c0,7.277,4.2,13.352,9.787,14.727a10.072,10.072,0,0,1-3.216.527,10.525,10.525,0,0,1-2.3-.266c1.56,5.957,6.062,10.309,11.393,10.43a21.756,21.756,0,0,1-15.155,6.438,19.473,19.473,0,0,1-2.911-.223,29.991,29.991,0,0,0,18.706,6.754c22.433,0,34.711-22.887,34.711-42.727,0-.664-.012-1.3-.034-1.945a28.4,28.4,0,0,0,6.084-7.762l.006-.008h0Z" transform="translate(-1 -31279.994)" fill="#1da1f2" fill-rule="evenodd"/>
</svg>
